<svg version="1.2" xmlns="http://www.w3.org/2000/svg" viewBox="0 0 1000 1000" width="200" height="200">
	<title>1292958_155838-OV6KVS-423</title>
	<style>
		.s0 { fill: #25282d } 
	</style>
	<path id="&lt;Compound Path&gt;" fill-rule="evenodd" class="s0" d="m867.8 1000h-734.8c0 0 10.4-64.9 19-101.2 8.6-36.2 9.5-141.6 52.7-183.9 43.1-42.3 201.2-78.6 212.4-91.5 11.2-13 13.8-58.7 8.6-81.2-5.2-22.4-15.5-57.5-15.5-57.5 0 0-10.1 0.3-15.3-9.8-5.2-10.1 0.3-25.4-1.7-36.3-2-10.9-9.2-26.2-8.1-36.3 1.1-9.2 6-15.3 6.8-16.2-2.1-3.7-4-7.3-5.6-11.2q0.3 2.3 0.5 4.5c0 0.2-0.2 0.3-0.3 0.1-10-28.7-10.3-64.5 4-91.9 2.9-5.6 6.8-11.2 11.4-16.2-4.5 3.8-8.6 8.3-11.8 13.2-13.7 20.6-15.3 45.6-13 69.5 0 0.1-0.2 0.2-0.2 0.1-3.9-24.7-3.2-52.5 11.2-73.8 2.5-3.6 5.7-7.3 9.3-10.8q-3.6 1.7-6.9 4.2c-17.5 13.5-21.1 38.8-18.8 59.5 0.1 0.1-0.2 0.2-0.2 0-5.8-24.4-2.1-50.9 19.9-66.2 4.7-3.3 11-5.6 17.5-6.5 0.6-0.4 1.2-0.8 1.9-1.2 4.9-9.4 11.1-18.1 17.2-25 24.9-28.7 61.4-42 98.1-40.8 16.3-1.6 33.2-1.3 48.8 2.4 21.9 5.3 39.9 20.1 56 35.2 16.6 15.6 30.4 32.6 42.2 52 0.2 0.2-0.2 0.5-0.4 0.2q-1.6-2.1-3.3-4.2c19.8 34.8 24.5 75.4 14.4 114.5-0.1 0.7-1.1 0.4-1-0.3 7.7-33.6 2.6-70.7-12.7-102 7.1 18.8 10.7 38.7 14.4 58.9 0.1 0.6-0.9 0.8-1 0.2-1.9-9.7-4.2-19.7-7-29.5 7.7 29.8 7 61.7-1.5 92.2-0.2 0.9-1.5 0.5-1.3-0.4 6.5-23.8 6.7-49.1 2-73.3 4.4 38.3-4.7 78.2-13.9 116.2-0.1 0.5-0.9 0.3-0.8-0.3 3.2-15.4 6.2-31.2 8.4-47.2-3.2 14.2-7.7 28.1-12.2 42-0.2 0.5-0.9 0.2-0.8-0.3q1.4-5.5 2.8-11.1c-2 5.1-4.1 9.8-6.4 14.1 0 0 3.5 66.3-52.2 121.2 0 0-2.2 45.4 0 51 2.1 5.6 47 23.8 71.2 32.8 24.2 9.1 128.7 27.7 158.9 95 30.2 67.4 22.4 137.3 29.4 179.6 6.9 42.3 7.7 67.5 7.7 67.5zm-478.1-623.7c-1.8-8.7-4.1-22.5-4.2-38.1-1.2 12.3 0.3 25.7 4.2 38.1zm0-74.6c-2 5.4-3.4 10.8-4.3 16.3q0.9-3 2.1-5.9 0.9-5.2 2.2-10.4zm255.5-45.1c-4.3-5.1-9.1-9.7-14.3-13.8q1.9 2 3.8 4.1c5.8 5.3 11.1 11.1 15.7 17.6 3 4.3 5.8 8.9 8 13.7 5.2 8.5 9.5 17.3 12.9 26.4-6.2-17.4-14.5-34-26.1-48zm-117-58.1q-1.7 0.1-3.4 0.3 6 0.1 11.9 0.9 0.3-0.2 0.5-0.4-4.5-0.6-9-0.8zm-38.1 10.4c11-2.7 22.2-4 33.6-4.1-11.3-0.3-22.7 1.1-33.6 4.1zm56.6 4c-8.4-1.1-17-1.1-25.5-0.3-2.9 0.4-5.8 0.8-8.6 1.4q6.6-0.6 13.7-0.8 3.4 0 6.7 0 6.9-0.5 13.7-0.3zm23.9-5c-9.9-3.9-20.2-6.6-30.7-8.2q0.9 0.4 1.8 0.8c7.6 1.3 15.1 3.3 22.3 6q0.6 0.3 1.1 0.5 2.7 0.5 5.5 0.9zm19.4 3.2c5.9 1.3 11.6 3.2 17.1 6.1q0.7 0.5 1.5 0.9c-8.1-6.1-16.7-11.6-26.3-15-7.9-2.9-16.2-4.3-24.6-4.9q5.5 1.5 10.9 3.3c7.3 2.6 14.4 5.8 21.4 9.6z"/>
</svg>